<svg id="Ebene_1" data-name="Ebene 1" xmlns="http://www.w3.org/2000/svg" viewBox="0 0 1705.79 1948.74"><defs><style>.cls-1{fill:none;stroke:#dadada;stroke-miterlimit:10;stroke-width:15px;stroke-dasharray:20 30;}</style></defs><path class="cls-1" d="M1422.58,2348c-16.61-59.72-43.28-77.13-92.59-113.29-35.83-26.28-72.82-51.48-105.82-81-86.83-77.77-112.74-187.86-54.5-290,24.37-42.76,56.06-81.28,83.3-122.47,29.1-44,49.66-91.62,56.09-144.63,6.16-50.76-10.91-94-43.84-131.29-17.38-19.66-39.09-35.58-55.76-55.75-41.83-50.57-50.1-111.1-49-174.55,1.12-64.93,30.89-116,69.88-165.09,28-35.2,40.3-78.11,36.56-123.45-2.45-29.64-9.27-58.91-13.2-82.67,31.3,35.85,76.06,71.27,88.09,127.95,9,42.54,7.82,85.45-7.84,127.29-7.84,21-14.7,42.62-18.75,64.57-8,43.53,9.13,78,41.08,107.41,47.21,43.47,99.42,82.69,135,137,33.93,51.71,49,110.13,49.34,172.45.26,54.68-9.5,106.93-37.54,154-21.92,36.82-53.75,64.65-89.09,89-27.28,18.83-57,37-77.57,62.12-44.28,54-32.1,112.43,24.84,152.59,44.08,31.1,89,61.47,130,96.37,45.54,38.79,70.5,90.86,79.88,150.36,5.45,34.62,8.76,26,.23,59.29" transform="translate(-648.15 -618.38)"/><path class="cls-1" d="M1651.47,2388.83c43.82-31.64,49.84-59.79,80.1-105,38.15-57,41.16-120,41.48-184.65.2-38.62-.76-77.54,3.57-115.78,9.65-85.31,54.8-150,120.87-203.16,47.52-38.2,102.2-61.31,156.89-85.51,54-23.87,110-44.59,152.08-89,20.16-21.24,37.54-44,43.91-73.51,7.9-36.62-8.62-66.28-25.75-96.23-14.28-25-28.8-50-40.26-76.3-9.23-21.14-.63-43.08,12.1-59.51,14.77-19.07,33-36.74,52.92-50.25,34.35-23.27,67.49-46.63,85-86.54l6.33,2.45c-4.53,17.9-8.69,35.91-13.68,53.68-8.12,28.87-19.13,57.15-24.66,86.49-8.3,44,5.31,86.51,14.45,129.23,10.88,50.82,25,101.61,28.92,153.09,5.15,68-17.25,128.39-81.2,162.55-43.93,23.46-90.76,41.7-137,60.63-51.47,21.09-98.73,48.27-131,94.52-24.28,34.78-21.45,75.8-17.2,115.94,4.52,42.83,13.5,85.68,13,128.43-1.08,97.89-84.93,213.54-162.35,272.21" transform="translate(-648.15 -618.38)"/><path class="cls-1" d="M1264.25,2334.9c-43.23-29.42-96.44-33.67-147-43.29-44.74-8.5-89.69-17.07-133.35-29.74-59-17.11-96.47-60.89-128.45-111.1-49.81-78.23-56.71-164.2-46.56-252.68,7.1-61.91,14.73-124.26,29.31-184.67a673.26,673.26,0,0,0,17.93-194.94c-4.57-86.3-36.29-162.39-97.44-224.69-18.87-19.22-39.32-36.88-59-55.27-35.36-33-46.79-75.66-43.39-121.46,7.21-97.16,25-192.72,51.27-286.57,4.57-16.33,12.51-31.71,19.67-49.48,1.47,9.06,3.92,16.82,3.78,24.53-1,52.73.46,105.72-4.37,158.12-9.66,104.85,21.75,194.38,93.39,270C853.5,1269.11,890.78,1301,923.7,1337c37.22,40.68,67.28,86.3,71.51,143.82,1,13.89-2.3,28.14-.82,41.92,5.84,54.2-7.83,105.84-19,157.84-12.65,58.75-28.38,117-37.38,176.31-8.61,56.76-4,115,26.51,164.89,34.1,55.85,79.75,101.38,139.28,132.89,62.58,33.12,124.27,68.46,183.4,107.33,31.76,20.88,57.54,51,85.46,77.5" transform="translate(-648.15 -618.38)"/><path class="cls-1" d="M1476.47,1813.54c20.19,46.85,41.81,93.17,62.78,139.74,24,53.28,39.42,108.06,30,166.67-8,49.84-3,25.17-13.26,71.13" transform="translate(-648.15 -618.38)"/><path class="cls-1" d="M1595.13,2349.85c37.44-46.39,32.8-44.12,62.24-94.88,14.61-25.18,28.08-50.81,27-80.41-1.05-30-1.69-60.17,7.61-89.66,9.69-30.73,5.37-60.71-4.48-90q-1.2-3.56-2.48-7.1-1.57-4.35-3.23-8.67t-3.41-8.62q-1.73-4.29-3.52-8.58t-3.6-8.56l-3.63-8.55q-1.82-4.27-3.61-8.56l-27.29-46.84c-8.75-12.55-13.85-27.81-17.5-42.52-10.33-41.67,8.32-76,42.37-103.28,33.65-26.92,71.08-50,105.22-76.48,55.75-43.21,81.32-95.89,59.55-161.21-6.48-19.46-12.71-39-20.6-58-15.86-38.2-33.93-75.65-49-114.11-22.79-58.18-23.5-117.27,10.31-173.12,31.19-51.53,67-100.9,101.2-151,24.43-35.76,47.12-72.51,49.35-114.86,1.57-29.92-.72-60.1-4-89.89,0-.12,0-.22,0-.34a9.49,9.49,0,0,0-.12-1l-.15-1.46a35.3,35.3,0,0,0-2.22-8.59c-4.31-15.81-12.91-42.13-15.31-46.32-7.5-13.07-18.5-24.46-26.19-37.46-7.82-13.22-12.26-28.1-20.23-41.24-7.82-12.9-17.81-24.71-27-36.91a6.94,6.94,0,0,0-2.77-2.27c-3.13-1.34-8.67-8.51-6.55,2.89l0,.22c3.16,33.68,6.44,67.36,9.47,101,7.48,83.16-12.84,159.45-75.72,224.65-33.26,34.49-66.24,69.33-101.71,102-17.16,15.79-28.9,32.5-36.48,49.85h0c-16.8,38.45-13.15,80-2.68,121.63,9.65,38.39,32.39,73.76,45.81,111.52,11.81,33.25,25.74,67.75,26.12,102.05.42,38.3-24.78,72.33-57.31,98.5-35.46,28.51-26.47,21.67-63.21,48.91" transform="translate(-648.15 -618.38)"/><path class="cls-1" d="M1426.11,2526.7c-20.43,16.68-100.47,30.88-112.44,32.27-59-1.58-109.17-11.1-151.69-44.75-16.34-12.94-28.52-29-32.36-50-4.64-25.41,4.74-46.52,22.14-64.25,25.89-26.37,58.65-40,94.1-47.24,58.8-12.05,116.65-9.13,171.45,17.08A169.52,169.52,0,0,1,1462,2401" transform="translate(-648.15 -618.38)"/><path class="cls-1" d="M1676.32,2542c31.13,25.1,41.45,15.43,82.43,17.19,10-1.09,22.68-1.76,35.07-4,25.17-4.53,48.7-13.27,68.78-29.85,29.88-24.67,30.1-62.19-.57-86a157.17,157.17,0,0,0-35.22-20.31c-29.38-12.37-60.44-14.71-92-11.78,0,0-37.68,9.34-47.3,15.39" transform="translate(-648.15 -618.38)"/><ellipse class="cls-1" cx="910.47" cy="1850.45" rx="123.57" ry="90.38"/></svg>